<?xml version="1.0" standalone="no"?><!DOCTYPE svg PUBLIC "-//W3C//DTD SVG 1.1//EN" "http://www.w3.org/Graphics/SVG/1.1/DTD/svg11.dtd"><svg t="1620962267365" class="icon" viewBox="0 0 1024 1024" version="1.1" xmlns="http://www.w3.org/2000/svg" p-id="14170" xmlns:xlink="http://www.w3.org/1999/xlink" width="16" height="16"><defs><style type="text/css"></style></defs><path d="M500.622222 796.444444v55.637334c0 8.419556-2.719289 12.629333-8.163555 12.629333-5.347556 0-7.8848-3.072-11.463111-8.504889-21.674667-32.938667-57.998222-58.862933-91.710578-59.733333L386.844444 796.444444h113.777778z m136.533334 0l-2.440534 0.034134c-33.712356 0.864711-70.030222 26.794667-91.710578 59.733333-3.578311 5.432889-6.115556 8.4992-11.463111 8.4992-5.444267 0-8.163556-4.209778-8.163555-12.629333V796.444444h113.777778z" fill="#FFC525" fill-opacity=".3" p-id="14171"></path><path d="M455.111111 227.555556a45.511111 45.511111 0 0 1 45.511111 45.511111v523.377777H147.911111a45.511111 45.511111 0 0 1-45.511111-45.511111V273.066667a45.511111 45.511111 0 0 1 45.511111-45.511111h307.2z m420.977778 0a45.511111 45.511111 0 0 1 45.488355 44.088888L921.6 273.066667v477.866666a45.511111 45.511111 0 0 1-44.088889 45.488356L876.088889 796.444444H523.377778V273.066667a45.511111 45.511111 0 0 1 44.088889-45.488356L568.888889 227.555556h307.2z m-494.933333 341.333333H221.866667a22.755556 22.755556 0 1 0 0 45.511111h159.288889a22.755556 22.755556 0 1 0 0-45.511111z m329.955555 0h-68.266667a22.755556 22.755556 0 1 0 0 45.511111h68.266667a22.755556 22.755556 0 1 0 0-45.511111zM381.155556 409.6H221.866667a22.755556 22.755556 0 1 0 0 45.511111h159.288889a22.755556 22.755556 0 1 0 0-45.511111z m420.977777 0h-159.288889a22.755556 22.755556 0 1 0 0 45.511111h159.288889a22.755556 22.755556 0 1 0 0-45.511111z" fill="#FFC525" p-id="14172"></path></svg>