<?xml version="1.0" standalone="no"?><!DOCTYPE svg PUBLIC "-//W3C//DTD SVG 1.1//EN" "http://www.w3.org/Graphics/SVG/1.1/DTD/svg11.dtd"><svg t="1620746314500" class="icon" viewBox="0 0 1024 1024" version="1.1" xmlns="http://www.w3.org/2000/svg" p-id="8386" xmlns:xlink="http://www.w3.org/1999/xlink" width="16" height="16"><defs><style type="text/css"></style></defs><path d="M877.653333 207.36H146.346667A65.706667 65.706667 0 0 0 85.333333 268.373333v487.253334a65.706667 65.706667 0 0 0 61.013334 61.013333h731.306666A65.706667 65.706667 0 0 0 938.666667 755.626667V268.373333a65.706667 65.706667 0 0 0-61.013334-61.013333zM744.106667 256l-235.946667 235.946667L271.786667 256zM185.173333 768l81.493334-88.746667a31.146667 31.146667 0 0 0 0-42.666666 29.866667 29.866667 0 0 0-42.666667 0l-89.173333 84.906666V308.906667A54.186667 54.186667 0 0 1 185.173333 256h18.773334l282.026666 292.266667A37.546667 37.546667 0 0 0 512 554.666667a37.546667 37.546667 0 0 0 25.173333-6.4Q818.346667 264.533333 818.346667 256h18.773333a54.186667 54.186667 0 0 1 50.346667 52.906667v412.586666L805.973333 640a29.866667 29.866667 0 0 0-42.666666 0 31.146667 31.146667 0 0 0 0 42.666667l80.213333 85.333333z" fill="#4863E9" p-id="8387"></path></svg>