<?xml version="1.0" standalone="no"?><!DOCTYPE svg PUBLIC "-//W3C//DTD SVG 1.1//EN" "http://www.w3.org/Graphics/SVG/1.1/DTD/svg11.dtd"><svg t="1620961877207" class="icon" viewBox="0 0 1025 1024" version="1.1" xmlns="http://www.w3.org/2000/svg" p-id="2668" xmlns:xlink="http://www.w3.org/1999/xlink" width="16.015625" height="16"><defs><style type="text/css"></style></defs><path d="M259.811816 564.425923c-4.865741 38.925926 9.731481 82.717592 38.925926 116.777778 38.925926 43.791666 82.717592 72.986111 155.703703 77.851851h9.731481c82.717592 0 165.435184-43.791666 209.226851-111.912036 9.731481-14.597222 29.194444-43.791666 34.060185-68.12037l38.925926-282.212962c48.657407 9.731481 141.106481 38.925926 194.629629 111.912036 4.865741 9.731481 19.462963 14.597222 29.194444 14.597223 9.731481 0 19.462963-9.731481 29.194444-19.462963 38.925926-72.986111 19.462963-233.555554-48.657407-306.541666-82.717592-82.717592-184.898147-97.314814-189.763888-97.314814-9.731481 0-29.194444 9.731481-29.194444 29.194444L707.459962 145.972222c0 14.597222 9.731481 34.060185 29.194445 38.925925 19.462963 0 43.791666-9.731481 48.657407-29.194444l14.597222-68.12037c29.194444 9.731481 63.254629 29.194444 102.180555 68.12037 34.060185 38.925926 43.791666 97.314814 43.791667 155.703703-97.314814-82.717592-223.824073-97.314814-228.689814-97.314814-19.462963 0-34.060185 9.731481-38.925926 29.194444l-24.328704 233.555554s0-4.865741-4.86574-4.86574c-38.925926-38.925926-102.180555-68.12037-165.435185-68.12037-126.509259-9.731481-214.092592 63.254629-223.824073 160.569443z m374.662036-38.925925l-9.731482 43.791666c0 9.731481 4.865741 29.194444-4.865741 43.791667-34.060185 48.657407-107.046296 72.986111-160.569443 68.12037-48.657407 0-68.12037-19.462963-97.314815-48.657408-9.731481-14.597222-19.462963-34.060185-19.462963-58.388888 4.865741-53.523148 48.657407-97.314814 126.509259-97.314815h14.597222c43.791666 0 82.717592 19.462963 111.912037 43.791667 9.731481 9.731481 29.194444 9.731481 38.925926 4.865741z m350.333331-9.731482c-48.657407-4.865741-48.657407 58.388889-48.657407 58.388889-19.462963 233.555554-214.092592 384.393517-452.513887 360.064813-238.421295-19.462963-413.587961-228.689814-389.259257-462.245368 19.462963-233.555554 214.092592-384.393517 452.513887-360.064813 24.328704 0 68.12037-9.731481 68.12037-34.060186 0-38.925926-29.194444-48.657407-58.388889-48.657407C264.677557 0 31.122002 180.032407 1.927558 462.245368-22.401145 744.45833 186.825705 992.611107 473.904408 1021.805551c287.078702 24.328704 520.634257-155.703703 544.96296-437.916665 4.865741-48.657407-4.865741-68.12037-34.060185-68.12037z" fill="#d81e06" p-id="2669"></path></svg>