<?xml version="1.0" standalone="no"?><!DOCTYPE svg PUBLIC "-//W3C//DTD SVG 1.1//EN" "http://www.w3.org/Graphics/SVG/1.1/DTD/svg11.dtd"><svg t="1620746121824" class="icon" viewBox="0 0 1024 1024" version="1.1" xmlns="http://www.w3.org/2000/svg" p-id="2215" xmlns:xlink="http://www.w3.org/1999/xlink" width="16" height="16"><defs><style type="text/css"></style></defs><path d="M306.4832 491.71968l-1.1008-3.39968-0.89088-4.45952-0.6144-2.45248v-10.02496l1.06496-3.93216 1.1008-4.1984 1.41312-4.37248 1.92512-4.864 2.5344-5.07904 3.57376-5.07904v-3.57888l0.35328-3.31264 0.53248-4.55168 1.55136-5.03808 1.41312-5.51936 1.12128-2.51392 1.3056-2.36544 1.67424-2.62656 1.81248-1.92v-12.5696l1.05984-6.47168 1.05984-7.51104 1.90464-8.99072 2.60096-9.33888 1.9456-5.1456 1.92512-5.61152 2.09408-5.21216 2.52416-5.61152 2.56-6.09792 2.95936-5.76 3.30752-6.12352 4.1984-6.1184 1.92-3.48672 2.07872-2.89792 4.48512-6.44608 4.59264-6.4512 5.25824-6.64576 5.61152-6.47168 6.09792-6.36416 6.35392-6.55872 7.68512-7.07072 4.91008-4.28544 5.9392-4.61824 6.03136-4.10624 6.528-3.92704 6.27712-3.49184 7.07072-2.87232 7.51104-3.59936 7.47008-2.45248 7.45984-2.51904 8.0384-2.51904 8.0384-1.94048 8.48384-1.56672 8.57088-1.39264 16.91136-2.29888 9.01632-0.4864h26.63936l8.87808 1.1008 8.92416 1.05984 9.09824 0.9728 8.43776 2.01216 8.92416 1.92 8.3712 2.16576 9.1648 2.45248 8.39168 2.97984 8.0384 3.4048 8.576 3.57376 7.83872 3.93216 7.59296 4.352 7.44448 4.8128 6.4512 4.43904 2.95936 2.53952 3.14368 1.83296 5.95456 5.08416 5.0432 4.87936 4.98688 5.05856 4.89984 5.61152 4.0192 5.39136 4.77696 5.61152 3.3536 6.00576 3.3792 5.34016 3.59936 6.18496 2.95936 5.43232 5.03808 11.4432 2.46784 5.92384 1.92 5.49888 1.92512 5.9392 1.72032 5.59104 1.23904 4.79232 1.54624 5.69344 2.7392 10.11712 1.74592 8.83712 1.1264 8.54528 0.96768 6.89152 1.55136 10.49088 0.35328 1.65888 1.23392 1.92 3.31776 5.41184 2.11968 3.64544 1.89952 3.8656 2.42688 4.08064 2.1248 4.90496 1.36704 5.08416 1.50016 5.4784 1.14688 5.67296 0.53248 2.81088 0.44032 3.39968v2.95936l-0.44032 2.97984v3.69152l-0.88576 3.55328-1.59232 6.912-1.81248 3.49184-1.32096 3.93216v0.9472l0.61952 1.21856 1.80736 2.8928 7.86432 11.61728 6.22592 8.72448 2.95424 5.85728 4.02432 6.38464 3.49184 6.97856 4.02432 7.5008 4.0192 8.3968 4.52608 9.50272 2.54464 5.84704 2.33472 5.67808 2.03264 6.03136 1.98656 5.41696 1.50528 5.67296 1.54112 5.3248 1.95072 10.39872 1.54112 10.6496 1.05984 9.43104v13.27616l-0.70656 4.73088-1.01376 8.10496-1.41312 7.32672-2.16576 6.62528-0.7936 2.71872-1.50528 3.2512-1.28 2.2528-1.67936 2.80576-1.50016 1.74592-1.8944 2.27328-1.67936 1.82784-1.81248 1.57184-2.16576 0.95232-1.9456 0.96768-1.59232 0.53248h-2.42688l-1.56672-0.53248-2.97984-1.47456-1.37216-0.95232-1.41312-1.05984-1.5616-1.41312-1.57184-1.54624-2.60608-2.8928-3.0976-4.08576-2.42688-4.21888-2.432-3.3792-2.36544-3.93216-3.328-6.99392-3.75296-7.2704-0.44032-0.24576h-0.61952l-1.54624 1.12128-0.88576 1.92512-1.45408 2.36544-2.56512 7.06048-3.84512 10.05568-4.94592 12.03712-3.712 6.04672-3.91168 6.27712-4.61312 7.07072-4.90496 6.91712-2.51392 3.13344-3.05152 3.39456-6.99904 6.91712 0.6144 0.59392 0.95232 0.9728 3.49184 2.09408 14.57152 6.98368 6.36416 3.57888 6.05184 3.49184 6.01088 4.37248 5.34528 4.54656 2.6112 1.99168 1.94048 2.36544 1.98656 2.71872 1.67936 2.95936 0.88064 2.45248 1.10592 2.97984 0.44032 2.51904 0.53248 2.95936-0.53248 2.00704v2.00704l-0.44032 2.10432-1.10592 1.91488-0.44032 1.50016-0.96768 1.8176-2.65216 3.57888-2.42688 2.89792-1.89952 2.18112-1.59232 1.57184-4.0192 2.95936-4.55168 2.5344-4.85888 2.45248-5.1712 2.36544-5.83168 2.2528-3.0976 0.9728-2.77504 0.77312-6.71232 1.56672-6.98368 1.50016-6.97856 1.4848-7.6032 1.21856-7.85408 0.34816-8.04352 0.9728h-24.96l-9.0112-0.5376-8.3968-0.78848-9.0112-1.21344-8.96512-0.95232-9.45152-1.32096-9.14432-2.27328-8.92416-1.75104-8.87808-2.51392-9.10336-3.2512-8.91904-2.71872-4.6848-1.54112-4.19328-1.50528-2.65728-1.03936-2.60096-0.50688h-7.424l-8.56576-0.61952-4.352-0.44032-5.59104-0.61952-3.57888 3.2256-4.90496 3.0464-6.62528 3.2512-7.32672 4.0192-4.46464 2.18624-4.63872 1.72544-10.29632 4.19328-5.58592 1.408-5.85728 1.57696-8.12544 1.56672-5.07904 0.44032-5.38624 0.44032-5.61152 0.61952-6.53824 0.26624h-26.7008l-15.08864-0.26624-14.62272-1.50016-7.41888-1.03936-14.14144-2.10432-6.97344-1.41312-6.47168-2.0736-6.47168-1.50528-5.83168-2.33472-5.52448-2.19136-5.12512-2.45248-4.4544-2.69312-4.46464-3.24608-1.50016-1.56672-1.98656-1.90464-1.50528-1.67936-1.36704-1.91488-1.23904-1.93024-0.9728-1.91488-1.39264-4.09088-0.50688-2.11968-0.61952-2.33984v-2.19136l0.61952-2.44736v-2.44736l0.50688-2.45248v-4.88448l0.24064-2.62656 1.152-2.95936 0.96768-2.96448 1.7664-3.57376 1.28512-1.41312 1.05984-1.57184 2.78016-3.39968 2.21184-1.74592 2.0736-1.23904 1.92512-1.54624 3.06176-0.9728 2.432-1.47968 3.05152-1.56672 3.48672-1.06496 3.49184-1.05472 4.0192-0.86016 3.84-0.50688 4.5568-0.61952 4.89984-0.35328 1.3056-0.44544h0.26624l0.61952-0.52736v-0.59904l-0.88576-1.21344-2.62656-1.23904-6.53824-5.67808-4.3776-3.49184-5.07904-4.4288-5.12512-4.99712-5.34528-6.35392-6.0928-7.15776-2.29888-3.8656-3.0464-4.00384-2.60608-4.6336-2.34496-5.08416-3.17952-4.79232-2.0736-5.49888-2.45248-5.49888-2.45248-6.11328-1.81248-5.83168-1.67936-7.2704-0.52736-0.26112h-0.512l-0.26112-0.512h-0.61952l-1.03936 0.512-0.52736 0.26112-0.71168 1.21856-0.26112 1.50016-0.52736 1.30048-0.93184 2.19136-3.00544 5.3248-1.54112 3.24096-2.45248 2.78528-2.62656 3.39968-2.87232 3.75808-3.0464 3.31264-3.57888 3.22048-3.33312 3.05152-3.64544 2.38592-4.02432 2.51904-3.84 1.50016-4.5568 1.1264-4.4544 0.41984h-1.05984l-1.01888-0.41984-0.7936-1.74592-1.32608-0.88064-1.72032-4.20352-1.05984-2.24768-1.152-3.2512-0.9472-3.3792-0.512-3.33312-1.408-7.59296-0.53248-4.46464v-14.66368l0.53248-10.91584 0.88064-5.58592 1.03936-5.77024 0.9472-6.20544 1.67936-5.73952 1.89952-6.66624 1.9456-6.45632 2.60608-6.62528 2.44736-6.37952 3.3792-6.47168 3.18464-6.97856 3.84-6.53824 4.52608-7.07584 4.61824-6.38464 4.81792-7.06048 4.0192-4.87936 5.15072-5.69856 5.40672-5.6576 2.51904-2.71872 3.06688-3.06688 4.43904-3.84512 4.55168-3.93216 7.424-6.62528 5.6064-4.10624z" p-id="2216" fill="#19CAAD"></path><path d="M512.00512 1024c-69.11488 0-136.16128-13.53728-199.30112-40.23808-60.96896-25.79456-115.72736-62.70976-162.74432-109.7216-47.01696-47.01696-83.93216-101.77024-109.7216-162.74432C13.54752 648.1664 0 581.10976 0 511.99488s13.5424-136.17152 40.2432-199.296c25.78944-60.97408 62.70464-115.72736 109.7216-162.7392 47.01696-47.01696 101.77024-83.93216 162.74432-109.71648C375.83872 13.53728 442.89024 0 512.00512 0s136.16128 13.5424 199.296 40.23808c60.96896 25.78944 115.72736 62.70464 162.74432 109.71648 47.01696 47.01696 83.93216 101.77024 109.7216 162.7392C1010.4576 375.82848 1024 442.88 1024 512c0 69.11488-13.5424 136.1664-40.23808 199.296-25.78944 60.97408-62.70464 115.72736-109.7216 162.74432s-101.77024 83.93216-162.74432 109.7216c-63.1296 26.69568-130.18112 40.23808-199.29088 40.23808z m0-994.67264C245.8624 29.32736 29.3376 245.85216 29.3376 511.99488s216.51968 482.66752 482.66752 482.66752c266.14272 0 482.6624-216.51968 482.66752-482.66752-0.00512-266.1376-216.5248-482.66752-482.66752-482.66752z" p-id="2217" fill="#19CAAD"></path></svg>