<?xml version="1.0" standalone="no"?><!DOCTYPE svg PUBLIC "-//W3C//DTD SVG 1.1//EN" "http://www.w3.org/Graphics/SVG/1.1/DTD/svg11.dtd"><svg t="1620712841385" class="icon" viewBox="0 0 1024 1024" version="1.1" xmlns="http://www.w3.org/2000/svg" p-id="34942" data-spm-anchor-id="a313x.7781069.0.i13" xmlns:xlink="http://www.w3.org/1999/xlink" width="16" height="16"><defs><style type="text/css"></style></defs><path d="M501.93 556.742c-93.732 0-169.97-89.184-169.97-198.778s76.223-198.778 169.97-198.778S671.9 248.37 671.9 357.964c0 109.581-76.223 198.778-169.97 198.778m0-337.465c-60.615 0-109.9 62.208-109.9 138.695s49.287 138.695 109.9 138.695 109.9-62.214 109.9-138.695c0-76.452-49.287-138.695-109.9-138.695zM573.618 860.101c-10.918 0-22.155-0.007-33.737-0.183a4619.761 4619.761 0 0 0-75.93 0c-88.534 0.821-158.579 1.436-202.956-42.509-27.105-26.887-40.327-67.401-40.327-123.882 0-40.537 14.653-78.25 43.495-112.106 10.796-12.639 29.767-14.1 42.374-3.324 12.622 10.78 14.112 29.735 3.363 42.374-19.562 22.949-29.135 46.86-29.135 73.075 0 39.625 7.374 66.197 22.508 81.223 26.542 26.33 85.452 25.795 160.106 25.107 24.826-0.222 52.169-0.222 76.972 0 74.682 0.752 133.553 1.184 160.106-25.107 15.178-15.04 22.508-41.614 22.508-81.223 0-16.453-14.54-54.34-32.454-69.946-12.51-10.892-13.787-29.849-2.917-42.382 10.898-12.51 29.871-13.766 42.381-2.868 31.741 27.617 53.106 81.9 53.106 115.22 0 56.478-13.191 97.007-40.327 123.882-38.588 38.203-96.519 42.701-169.221 42.701z" p-id="34943" fill="#d4237a"></path></svg>