<?xml version="1.0" standalone="no"?><!DOCTYPE svg PUBLIC "-//W3C//DTD SVG 1.1//EN" "http://www.w3.org/Graphics/SVG/1.1/DTD/svg11.dtd"><svg t="1620746704109" class="icon" viewBox="0 0 1024 1024" version="1.1" xmlns="http://www.w3.org/2000/svg" p-id="25049" xmlns:xlink="http://www.w3.org/1999/xlink" width="16" height="16"><defs><style type="text/css"></style></defs><path d="M512 0a512 512 0 1 0 512 512 512 512 0 0 0-512-512z m31.36 272c3.84-37.12 48.64-94.08 84.48-86.4a91.52 91.52 0 0 1 64 96c-6.4 40.96-39.04 94.08-88.96 87.68S538.24 320 543.36 272zM437.76 168.96c37.76 0 67.84 43.52 67.84 96.64s-30.08 97.28-67.84 97.28S369.92 320 369.92 266.24s30.72-97.28 67.84-97.28zM225.92 398.72s8.32-79.36 64-84.48C332.8 310.4 364.8 357.76 368 384c0 17.92 11.52 99.2-56.96 113.92S218.24 435.2 225.92 398.72z m518.4 343.04c-37.12 87.68-173.44 42.24-173.44 42.24a229.12 229.12 0 0 0-108.8-3.2 384 384 0 0 1-108.8 8.32A94.08 94.08 0 0 1 266.24 704c-19.2-86.4 67.84-133.12 74.88-141.44a404.48 404.48 0 0 0 80.64-87.68 99.84 99.84 0 0 1 178.56 8.32 693.12 693.12 0 0 0 122.88 128 110.08 110.08 0 0 1 21.12 130.56z m-11.52-200.32c-74.88 0-77.44-50.56-77.44-87.68s8.32-94.08 67.84-94.08a78.72 78.72 0 0 1 76.16 78.08c0 19.2 8.32 102.4-66.56 103.68z" p-id="25050" fill="#F08080"></path></svg>