<?xml version="1.0" standalone="no"?><!DOCTYPE svg PUBLIC "-//W3C//DTD SVG 1.1//EN" "http://www.w3.org/Graphics/SVG/1.1/DTD/svg11.dtd"><svg t="1620747724693" class="icon" viewBox="0 0 1123 1024" version="1.1" xmlns="http://www.w3.org/2000/svg" p-id="2854" xmlns:xlink="http://www.w3.org/1999/xlink" width="17.546875" height="16"><defs><style type="text/css"></style></defs><path d="M209.92 642.510452c21.305806-0.924903 41.092129-2.246194 60.71329-2.642581 84.992-1.486452 168.497548 8.687484 247.874065 40.728774 38.812903 15.624258 76.304516 33.725935 110.063484 59.193807 27.747097 20.909419 33.758968 46.905806 21.140645 85.388387-7.927742 23.750194-23.783226 41.620645-43.73471 57.310967-47.137032 36.731871-96.520258 69.92929-153.269677 88.592517-39.770839 13.212903-81.061161 23.155613-122.549678 29.596903-54.437161 8.456258-109.667097 12.221935-164.731871 17.341935-11.297032 1.123097-22.792258-0.396387-34.08929-0.396387-5.84671 0-7.366194-3.005935-7.564387-8.092903-1.486452-25.104516-2.642581-50.341161-4.888774-75.412645-2.840774-32.404645-6.044903-64.842323-9.810581-97.081807a10611.381677 10611.381677 0 0 0-16.384-134.771613c-5.84671-47.302194-11.891613-94.439226-17.540129-141.741419-5.648516-46.179097-10.735484-92.556387-16.780387-138.735484-6.771613-52.785548-14.336-105.571097-21.470968-158.356645A1544.059871 1544.059871 0 0 0 0.660645 78.352516c-0.759742-2.642581 1.519484-8.48929 3.765678-9.249032C57.806452 47.632516 111.351742 26.690065 164.665806 5.384258c17.738323-7.168 19.257806-9.249032 19.422968 13.212903 0.198194 95.562323 0.561548 191.124645 2.081032 286.72a2798.492903 2798.492903 0 0 0 6.044904 149.074581c4.129032 60.515097 10.570323 121.030194 16.020645 181.54529 0 2.642581 1.123097 5.086968 1.684645 6.606452z m106.496 277.470967c49.383226-37.326452 97.643355-73.893161 146.101677-110.658064-6.044903-8.654452-139.098839-60.878452-170.413419-67.848258 7.927742 58.995613 16.020645 117.826065 24.311742 178.506322zM868.550194 901.12c-25.434839-257.288258-46.938839-517.41729-96.123871-776.026839 15.987613-1.882839 32.04129-4.162065 48.227096-5.483355 18.663226-1.684645 37.524645-2.444387 56.154839-3.963871 15.65729-1.32129 21.504 2.840774 22.461936 18.101678 2.807742 40.926968 5.285161 81.820903 8.092903 122.714839 3.765677 55.229935 7.729548 110.658065 11.693419 165.888 2.840774 39.770839 5.285161 79.739871 8.48929 119.510709 3.567484 43.536516 7.531355 86.874839 11.495226 130.444387 2.840774 32.04129 5.450323 64.280774 8.654452 96.322065 3.402323 34.683871 7.168 69.367742 10.768516 104.051613 0.924903 9.975742 2.048 19.984516 2.807742 29.960258 0.396387 5.483355-2.642581 6.210065-7.729548 5.648516-27.681032-2.807742-55.395097-4.888774-84.992-7.134968zM637.852903 528.483097c22.395871-3.204129 44.065032-6.804645 65.734194-9.249032 15.65729-1.882839 31.479742-2.081032 47.137032-3.567484 8.48929-0.759742 13.939613 2.246194 15.260903 10.570322 3.600516 22.032516 7.366194 44.263226 10.008774 66.526968 4.327226 36.930065 7.729548 74.058323 11.69342 110.988387 3.36929 32.437677 6.771613 64.677161 10.570322 97.114839 4.129032 34.683871 8.654452 69.169548 12.981678 103.655226 1.32129 10.173935 2.246194 20.546065 3.567484 31.677935-31.644903 3.963871-62.563097 7.927742-95.198968 12.221936-27.119484-139.858581-54.272-278.561032-81.787871-419.939097zM1122.832516 959.388903c-30.554839 0-59.953548 0.198194-89.352258-0.396387-2.444387 0-6.804645-4.294194-6.969806-6.936774-4.525419-47.137032-8.48929-94.075871-12.651355-141.212903l-11.891613-131.204129c-4.129032-45.022968-8.059871-90.078968-12.221936-135.134968-0.198194-2.642581-0.759742-5.086968-1.32129-9.050839 10.933677-1.32129 21.305806-3.402323 31.843097-3.402322 28.473806 0 56.947613 0.759742 85.58658 1.519484 7.366194 0.198194 10.570323 5.086968 10.933678 11.891612 0.957935 14.104774 2.279226 28.077419 2.279226 42.215226 0.165161 66.328774-0.198194 132.888774 0.363355 199.250581 0.561548 52.95071 2.279226 106.099613 3.402322 159.083355v13.378064zM700.614194 468.529548c-6.804645-54.272-13.60929-107.255742-20.579097-162.485677 17.738323-0.198194 35.443613-0.759742 52.983742-0.759742 5.84671 0 8.48929 3.204129 9.050838 9.612387 4.690581 49.383226 9.579355 98.766452 14.699355 150.065549-18.299871 0.924903-37.16129 2.246194-56.154838 3.567483zM1055.710968 321.502968c15.095742 0 31.116387-0.198194 47.335226 0 8.092903 0.198194 12.056774 3.402323 12.056774 13.014709-0.561548 45.980903-0.198194 91.994839-0.198194 137.777549v10.372129c-19.422968-0.924903-38.086194-1.882839-58.995613-2.807742-0.198194-52.224-0.198194-104.646194-0.198193-158.356645zM633.492645 479.463226c-9.447226-52.587355-19.059613-104.811355-28.672-158.323613 17.176774-2.642581 34.320516-5.483355 51.299097-7.564387 7.531355-0.924903 6.210065 5.681548 6.606452 9.81058 2.048 17.70529 3.567484 35.245419 5.450322 52.95071 3.005935 27.747097 6.011871 55.428129 8.852645 82.944 0.363355 3.600516 0 7.366194 0 11.330065-14.336 3.005935-28.672 5.84671-43.536516 8.852645zM977.688774 322.064516c16.020645 0 32.04129 0.198194 47.896774-0.198193 7.134968-0.165161 9.777548 1.32129 9.579355 9.645419-0.561548 22.032516 0.198194 44.098065 0.396387 66.328774 0.165161 27.35071 0 54.833548 0 82.019097-16.218839 1.651613-30.356645 2.972903-45.617548 4.690581-3.963871-53.347097-8.125935-106.496-12.254968-162.485678z" fill="#FFCB00" p-id="2855"></path></svg>