<?xml version="1.0" standalone="no"?><!DOCTYPE svg PUBLIC "-//W3C//DTD SVG 1.1//EN" "http://www.w3.org/Graphics/SVG/1.1/DTD/svg11.dtd"><svg t="1620714453423" class="icon" viewBox="0 0 1024 1024" version="1.1" xmlns="http://www.w3.org/2000/svg" p-id="1227" xmlns:xlink="http://www.w3.org/1999/xlink" width="16" height="16"><defs><style type="text/css"></style></defs><path d="M826.759529 556.965647h-172.66447a117.458824 117.458824 0 0 0-117.217883 117.127529v172.483765A117.458824 117.458824 0 0 0 654.095059 963.764706h172.66447a117.458824 117.458824 0 0 0 117.217883-117.12753v-172.544a117.458824 117.458824 0 0 0-117.217883-117.127529z m-220.069647 116.133647a47.435294 47.435294 0 0 1 47.405177-47.344941h172.66447a47.435294 47.435294 0 0 1 47.375059 47.344941v172.513882a47.435294 47.435294 0 0 1-47.375059 47.344942h-172.66447a47.435294 47.435294 0 0 1-47.405177-47.344942v-172.544z m-256.602353-116.133647H177.423059A117.458824 117.458824 0 0 0 60.235294 674.093176v172.483765A117.458824 117.458824 0 0 0 177.423059 963.764706h172.66447a117.458824 117.458824 0 0 0 117.217883-117.12753v-172.544a117.458824 117.458824 0 0 0-117.217883-117.127529z m-220.039529 116.103529a47.435294 47.435294 0 0 1 47.405176-47.344941h172.664471a47.435294 47.435294 0 0 1 47.435294 47.344941v172.513883a47.435294 47.435294 0 0 1-47.375059 47.344941H177.423059a47.435294 47.435294 0 0 1-47.405177-47.344941v-172.513883z m220.039529-589.312H177.423059A117.458824 117.458824 0 0 0 60.235294 200.884706v172.574118a117.458824 117.458824 0 0 0 117.217882 117.127529h172.664471a117.820235 117.820235 0 0 0 117.217882-118.121412V200.884706a117.458824 117.458824 0 0 0-117.248-117.12753zM130.048 199.860706a47.435294 47.435294 0 0 1 47.375059-47.344941h172.66447A47.435294 47.435294 0 0 1 397.552941 199.860706v172.483765a47.435294 47.435294 0 0 1-47.375059 47.344941H177.423059a47.435294 47.435294 0 0 1-47.405177-47.344941V199.860706z m532.118588 273.769412a110.290824 110.290824 0 0 0 78.305883 32.88847 106.375529 106.375529 0 0 0 78.305882-32.88847L931.147294 361.411765a110.652235 110.652235 0 0 0 0-156.431059l-112.429176-112.338824A110.08 110.08 0 0 0 740.442353 60.235294a109.959529 109.959529 0 0 0-78.305882 32.346353L549.707294 204.8a110.682353 110.682353 0 0 0 0 156.431059z m-63.247059-219.617883L711.318588 141.552941a41.773176 41.773176 0 0 1 58.24753 0l112.429176 112.308706a40.688941 40.688941 0 0 1 0 58.187294L769.536 424.658824a41.773176 41.773176 0 0 1-58.247529 0l-112.429177-112.338824a40.688941 40.688941 0 0 1 0.030118-58.307765z" fill="#EC763D" p-id="1228"></path></svg>