<?xml version="1.0" standalone="no"?><!DOCTYPE svg PUBLIC "-//W3C//DTD SVG 1.1//EN" "http://www.w3.org/Graphics/SVG/1.1/DTD/svg11.dtd"><svg t="1620713040809" class="icon" viewBox="0 0 1024 1024" version="1.1" xmlns="http://www.w3.org/2000/svg" p-id="39356" xmlns:xlink="http://www.w3.org/1999/xlink" width="16" height="16"><defs><style type="text/css"></style></defs><path d="M633.728 269.44c24.064 0 46.848 9.344 64 26.496 35.072 35.072 35.072 92.544 0 128L673.664 448l-84.736 84.736-78.72 78.72-187.52-187.52c-17.152-17.152-26.496-39.936-26.496-64s9.344-46.848 26.496-64c17.152-17.152 39.552-26.496 64-26.496 24.064 0 46.848 9.344 64 26.496l26.88 26.88c8.576 8.576 20.352 13.44 32.64 13.44h2.048c13.056-0.384 25.216-6.528 33.408-16.256l1.28-1.664 22.784-22.784c17.152-16.768 39.936-26.112 64-26.112" fill="#86BA4C" p-id="39357"></path><path d="M561.408 756.992l280.576-280.576c83.584-84.224 83.584-221.184 0-305.28-40.448-40.96-94.592-63.616-152.832-63.616-57.344 0-111.488 22.272-152.704 62.848L509.696 197.12l-25.6-25.6c-40.064-39.808-95.744-62.72-152.832-62.72-57.856 0-112.128 22.272-152.704 62.848-83.968 83.84-83.968 220.928 0 305.408L459.52 758.016c11.52 9.728 22.528 16.256 33.536 19.584v208.768c0 9.472 7.68 17.28 17.28 17.28s17.28-7.68 17.28-17.28V777.984c11.392-3.328 22.656-10.24 33.792-20.992z m-358.4-304.128c-70.528-71.04-70.528-186.24 0-256.768 34.048-34.048 79.616-52.864 128.384-52.864 48 0 94.848 19.2 128.384 52.864l38.4 38.4c3.584 3.584 8.448 5.376 13.44 4.992 4.992-0.384 9.6-2.816 12.544-6.784l36.736-37.632c34.688-34.176 80.256-52.864 128.384-52.864 48.896 0 94.464 18.944 128.256 53.376 70.272 70.784 70.272 185.984 0 256.768L537.344 732.416c-10.368 9.984-18.048 12.672-23.296 13.312-1.152-0.256-2.432-0.384-3.712-0.384-1.024 0-2.048 0.128-3.072 0.256-7.296-1.152-15.616-5.632-24.32-12.928L203.008 452.864z" fill="#040000" p-id="39358"></path><path d="M449.152 905.344C390.656 779.136 258.304 702.208 119.04 714.112c-9.472 0.768-16.512 9.216-15.744 18.688 0.768 9.472 9.216 16.384 18.688 15.744 124.672-10.752 243.456 58.24 295.936 171.52 7.296 15.104 12.416 30.976 16.256 43.136 2.304 7.424 9.088 12.16 16.512 12.16 1.664 0 3.328-0.256 5.12-0.768 9.088-2.816 14.208-12.416 11.392-21.504-4.096-13.44-9.856-30.848-18.048-47.744zM893.312 713.472c-138.496-11.904-270.976 65.024-329.984 190.976-8.192 17.152-13.952 34.56-18.048 47.872-2.816 9.088 2.304 18.688 11.392 21.504 1.664 0.512 3.456 0.768 5.12 0.768 7.424 0 14.208-4.736 16.512-12.16 3.712-12.16 8.96-28.032 16.256-43.264 52.992-113.152 171.776-182.272 295.936-171.392 9.216 0.64 17.792-6.272 18.688-15.744 0.64-9.344-6.4-17.664-15.872-18.56z" fill="#040000" p-id="39359"></path></svg>