<?xml version="1.0" standalone="no"?><!DOCTYPE svg PUBLIC "-//W3C//DTD SVG 1.1//EN" "http://www.w3.org/Graphics/SVG/1.1/DTD/svg11.dtd"><svg t="1620712543100" class="icon" viewBox="0 0 1024 1024" version="1.1" xmlns="http://www.w3.org/2000/svg" p-id="25551" xmlns:xlink="http://www.w3.org/1999/xlink" width="16" height="16"><defs><style type="text/css"></style></defs><path d="M511.997442 534.862707c-106.250906 0-192.687534 92.293009-192.687534 205.753107 0 12.636808-9.570983 22.859637-21.410636 22.859638-11.825326 0-21.405519-10.223852-21.405519-22.859638 0-138.66413 105.650225-251.477498 235.503689-251.477498 129.863696 0 235.514945 112.813369 235.514945 251.477498 0 12.636808-9.582239 22.859637-21.405519 22.859638-11.840676 0-21.411659-10.223852-21.411659-22.859638-0.002047-113.460098-86.437651-205.753107-192.697767-205.753107z m428.201455 228.613768c-11.830443 0-21.407566-10.223852-21.407566-22.859637 0-239.511979-182.489264-434.367899-406.793889-434.367899S105.211738 501.103836 105.211738 740.615814c0 12.636808-9.576099 22.859637-21.405519 22.859638-11.840676 0-21.416775-10.223852-21.416775-22.859638 0-264.716011 201.699792-480.093313 449.607998-480.093312 247.917416 0 449.612091 215.376279 449.612091 480.093312 0 12.636808-9.570983 22.86066-21.410636 22.860661z" p-id="25552"></path></svg>