<?xml version="1.0" standalone="no"?><!DOCTYPE svg PUBLIC "-//W3C//DTD SVG 1.1//EN" "http://www.w3.org/Graphics/SVG/1.1/DTD/svg11.dtd"><svg t="1620749559575" class="icon" viewBox="0 0 1024 1024" version="1.1" xmlns="http://www.w3.org/2000/svg" p-id="12865" xmlns:xlink="http://www.w3.org/1999/xlink" width="16" height="16"><defs><style type="text/css"></style></defs><path d="M277.248 421.76a38.4 38.4 0 0 1 54.336 54.272l-128 128c-62.72 62.912-64.64 162.048-5.248 221.568 59.52 59.52 158.72 57.6 221.568-5.184l128-128a38.4 38.4 0 1 1 54.336 54.272l-128 128c-92.416 92.352-240.192 95.104-330.176 5.184-89.92-89.92-87.04-237.696 5.184-330.112z m346.176-75.52a38.4 38.4 0 0 1 54.272 54.4l-277.12 277.12a38.4 38.4 0 0 1-54.272-54.4zM549.76 149.312c92.352-92.288 240.128-95.04 330.112-5.12 89.92 89.92 87.04 237.696-5.184 330.112l-128 128a38.4 38.4 0 0 1-54.336-54.272l128-128c62.72-62.912 64.64-162.048 5.248-221.568-59.52-59.52-158.72-57.6-221.568 5.184l-128 128a38.4 38.4 0 0 1-54.336-54.272z" fill="#FA830C" p-id="12866"></path></svg>