<?xml version="1.0" standalone="no"?><!DOCTYPE svg PUBLIC "-//W3C//DTD SVG 1.1//EN" "http://www.w3.org/Graphics/SVG/1.1/DTD/svg11.dtd"><svg t="1620711275612" class="icon" viewBox="0 0 1024 1024" version="1.1" xmlns="http://www.w3.org/2000/svg" p-id="948" xmlns:xlink="http://www.w3.org/1999/xlink" width="16" height="16"><defs><style type="text/css"></style></defs><path d="M814.8 123C663.2 44.2 515.6 62 365.8 132c-22.6 10.4-31 21.2-39.8 38-20.6 38.4-32.4 74.8-39.8 105.4-42.4 51.2-72.8 112.2-86.6 179.8-21.2 36-41.8 82.8-46.2 142.8 0 0-1.4 15.2-1 15.8-70.6-9.2-152.4-54-152.4-54 18.2 29 122.6 64.6 152.6 75.8 0 0 3.4 196 129 262.4-22.6-34.4-26.6-40.4-26.6-40.4S189.6 738 200.8 649.4c1.4 0 3 0.4 4.4 0.4 47.8 174.8 206.4 302.8 393.8 302.8 12.4 0 24.2-0.4 36-1.4 28 3 55.2 1 80.2-7.8 13.8-4.4 27.6-12.8 40.4-21.6 140.4-78.2 201.8-164 246.2-295.4 10.8-32 16.2-71 19.6-104.4 17.4-164.6-61.2-323.2-206.6-399zM277.6 326.4s-2.4 24.6-1.4 39.4c-6.8 5-20.2 16.2-36.4 33.4 10.4-25.6 22.6-50.2 37.8-72.8z m-62.4 243.8c8.8-34.4 26.6-78.2 59.6-110.2 0 0 3.4 96 31.6 180.2l-82.8-13.8c-4.4-18.4-7-37-8.4-56.2z m15.8 85.6c29.6 6.4 68 15.2 86.2 18.2 54.6 153.6 216.6 248.6 216.6 248.6 2 1 3.4 1.4 5.4 2-146.2-23.2-265.4-129.4-308.2-268.8zM772 888.2c-29 9.4-72.4 16.8-129.4 7.4 0 0-182.2-46.2-255-215.6 76.4 1.4 104.8-0.4 156-7.8 78.8-11.4 158-32.4 230-66 23.6-10.8 22.2-38.8 19.2-59.6-4-25.6-22.2-24.2-42.8-9.4 0 0-164 117.2-379.6 107.4-37.4-64-53.6-221.6-53.6-221.6 82.8-70.4 166.4-119.2 336.8-104.8 0.4-12.8 6-54.2-40.8-56.2 0 0-187-22.2-292 67 5-33 11.8-58.6 22.2-78.8 68.4-61.6 158-99 256.6-99 212.8 0 386 174.2 386 389-0.4 152-87.6 284-213.6 348z" fill="#ffffff" p-id="949"></path></svg>