<?xml version="1.0" standalone="no"?><!DOCTYPE svg PUBLIC "-//W3C//DTD SVG 1.1//EN" "http://www.w3.org/Graphics/SVG/1.1/DTD/svg11.dtd"><svg t="1620710118941" class="icon" viewBox="0 0 1024 1024" version="1.1" xmlns="http://www.w3.org/2000/svg" p-id="19828" data-spm-anchor-id="a313x.7781069.0.i4" xmlns:xlink="http://www.w3.org/1999/xlink" width="16" height="16"><defs><style type="text/css"></style></defs><path d="M232.106667 75.093333c-20.48 34.133333-13.653333 61.44 20.48 68.266667 27.306667 0-6.826667 27.306667-81.92 54.613333-163.84 61.44-211.626667 471.04-61.44 532.48 54.613333 20.48 95.573333 75.093333 95.573333 122.88s47.786667 102.4 102.4 129.706667c54.613333 20.48 102.4 6.826667 102.4-34.133333s61.44-54.613333 129.706667-27.306667c163.84 47.786667 443.733333-197.973333 389.12-341.333333-20.48-54.613333-6.826667-116.053333 34.133333-143.36 109.226667-61.44-286.72-389.12-498.346667-409.6-109.226667-6.826667-211.626667 13.653333-232.106666 47.786666zM750.933333 273.066667c204.8 211.626667 54.613333 587.093333-238.933333 580.266666C348.16 853.333333 136.533333 655.36 136.533333 498.346667 136.533333 211.626667 539.306667 54.613333 750.933333 273.066667z" p-id="19829" fill="#2c2c2c"></path><path d="M341.333333 341.333333C232.106667 450.56 218.453333 512 273.066667 614.4c81.92 150.186667 273.066667 177.493333 395.946666 54.613333C791.893333 546.133333 764.586667 354.986667 614.4 273.066667c-102.4-54.613333-163.84-40.96-273.066667 68.266666z m307.2 170.666667c0 204.8-266.24 184.32-293.546666-20.48-20.48-136.533333 0-157.013333 136.533333-136.533333 102.4 13.653333 157.013333 68.266667 157.013333 157.013333z" p-id="19830" fill="#2c2c2c"></path></svg>