<?xml version="1.0" standalone="no"?><!DOCTYPE svg PUBLIC "-//W3C//DTD SVG 1.1//EN" "http://www.w3.org/Graphics/SVG/1.1/DTD/svg11.dtd"><svg t="1620714262370" class="icon" viewBox="0 0 1024 1024" version="1.1" xmlns="http://www.w3.org/2000/svg" p-id="2976" xmlns:xlink="http://www.w3.org/1999/xlink" width="16" height="16"><defs><style type="text/css"></style></defs><path d="M993.715 402.202L793.472 891.699a90.573 90.573 0 0 1-116.838 48.947l-153.959-60.185 343.04-335.36c35.098-34.304 29.005-92.851 30.31-135.68 0 0 1.409-163.559-51.814-216.781a118.835 118.835 0 0 0-51.814-26.112C755.2 130.56 656.179 127.77 624.64 127.872c19.354-12.8 119.936-75.443 207.36-41.242 97.51 38.119 122.88 174.08 122.88 174.08 15.898 39.86 57.267 96.436 38.835 141.492z" fill="#FDEAA8" p-id="2977"></path><path d="M306.022 892.365L51.79 643.84a86.477 86.477 0 0 1 0-124.262l381.363-372.762C473.139 106.829 572.006 129.28 614.4 128c0 0 134.682-4.685 178.586 39.22C846.208 220.441 844.8 384 844.8 384c-1.306 42.726 4.787 101.274-30.31 135.68L433.152 892.365a91.34 91.34 0 0 1-127.13 0zM666.19 291.84a91.34 91.34 0 0 0-127.104 0 86.477 86.477 0 0 0 0 124.262 91.34 91.34 0 0 0 127.104 0 86.477 86.477 0 0 0 0-124.262z" fill="#FFD236" p-id="2978"></path></svg>